<svg width="32" height="32" viewBox="0 0 32 32" fill="none" xmlns="http://www.w3.org/2000/svg">
<circle cx="16" cy="16" r="16" fill="white"/>
<path d="M16 0.780518C7.59587 0.780518 0.780518 7.59587 0.780518 16C0.780518 24.4042 7.59587 31.2195 16 31.2195C24.4042 31.2195 31.2195 24.4042 31.2195 16C31.2195 7.59587 24.4042 0.780518 16 0.780518Z" fill="#8ACBEF"/>
<path d="M21.656 21.7664C20.0181 21.429 18.0735 21.2327 15.9755 21.2327C13.8653 21.2327 11.9084 21.4351 10.2766 21.7725C7.66338 22.3185 5.20347 25.6249 5.03784 26.5512C7.80447 29.4283 11.6937 31.2134 16.0001 31.2134C20.3064 31.2134 24.1957 29.4221 26.9623 26.5512C26.7967 25.6249 24.3061 22.3123 21.656 21.7664Z" fill="#1D1D1E"/>
<path d="M15.9877 20.2268L13.5585 20.5519L13.675 21.3555L15.9816 23.0793L18.3249 21.3555L18.4415 20.5519L15.9877 20.2268Z" fill="#D4D6D8"/>
<path d="M18.3863 18.0854H13.6137C14.356 20.3306 13.6751 21.3551 13.6751 21.3551L15.3252 21.7293H16.6748L18.3249 21.3551C18.3249 21.3551 17.644 20.3306 18.3863 18.0854Z" fill="#E2A379"/>
<path d="M19.4414 21.4228L18.4354 20.5518L16 21.7296L13.5585 20.5518L12.5647 21.4167L12.4604 21.5026C12.4604 21.5026 12.485 29.3179 16 29.3179C19.515 29.3179 19.5396 21.5026 19.5396 21.5026L19.4414 21.4228Z" fill="#E6E7E8"/>
<path d="M18.7789 20.8462L16 21.9872L13.2211 20.8462L13.0187 21.018L16 22.2571L18.9813 21.018L18.7789 20.8462Z" fill="#3C3C3F"/>
<path d="M13.6996 20.8831V22.981L15.6074 22.3185V21.5394L13.6996 20.8831Z" fill="#1D1D1E"/>
<path d="M16.3926 21.5394V22.3185L18.3004 22.981V20.8831L16.3926 21.5394Z" fill="#1D1D1E"/>
<path d="M16.5951 21.4106H15.4111V22.4658H16.5951V21.4106Z" fill="#1D1D1E"/>
<path d="M16 24.2506C16.1524 24.2506 16.276 24.127 16.276 23.9745C16.276 23.8221 16.1524 23.6985 16 23.6985C15.8475 23.6985 15.7239 23.8221 15.7239 23.9745C15.7239 24.127 15.8475 24.2506 16 24.2506Z" fill="#9B9B9A"/>
<path d="M16 26.1524C16.1524 26.1524 16.276 26.0288 16.276 25.8764C16.276 25.7239 16.1524 25.6003 16 25.6003C15.8475 25.6003 15.7239 25.7239 15.7239 25.8764C15.7239 26.0288 15.8475 26.1524 16 26.1524Z" fill="#9B9B9A"/>
<path d="M16 28.0543C16.1524 28.0543 16.276 27.9307 16.276 27.7782C16.276 27.6258 16.1524 27.5022 16 27.5022C15.8475 27.5022 15.7239 27.6258 15.7239 27.7782C15.7239 27.9307 15.8475 28.0543 16 28.0543Z" fill="#9B9B9A"/>
<path d="M12.4604 21.5027C9.47295 21.9812 7.3259 23.0302 6.99464 24.257C6.7922 25.0054 6.56523 26.4164 6.37506 27.7843C6.37506 27.7843 6.37506 27.7843 6.37506 27.7905C9.0006 29.9314 12.35 31.2196 16 31.2196C16.0859 31.2196 16.1717 31.2196 16.2576 31.2135H16.2638V29.3118C13.7548 26.8028 12.4604 21.5027 12.4604 21.5027Z" fill="#1D1D1E"/>
<path d="M24.9992 24.2634C24.6679 23.0365 22.5209 21.9814 19.5334 21.509C19.5334 21.509 18.2145 26.8153 15.7055 29.3182V31.2137C15.8037 31.2137 15.9018 31.2198 16 31.2198C19.6499 31.2198 22.9993 29.9316 25.6249 27.7907C25.4286 26.4166 25.2016 25.0057 24.9992 24.2634Z" fill="#1D1D1E"/>
<path d="M16.319 29.9435C16.5155 29.9435 16.6748 29.7842 16.6748 29.5877C16.6748 29.3912 16.5155 29.2319 16.319 29.2319C16.1225 29.2319 15.9632 29.3912 15.9632 29.5877C15.9632 29.7842 16.1225 29.9435 16.319 29.9435Z" fill="#0F0F0F"/>
<path d="M16.319 29.8824C16.4816 29.8824 16.6134 29.7505 16.6134 29.5879C16.6134 29.4253 16.4816 29.2935 16.319 29.2935C16.1564 29.2935 16.0245 29.4253 16.0245 29.5879C16.0245 29.7505 16.1564 29.8824 16.319 29.8824Z" fill="#1D1D1E"/>
<path d="M18.877 23.5946C18.6317 24.2816 18.3556 24.9626 18.0489 25.6251C17.7422 26.2876 17.4048 26.9378 17.0183 27.5574C16.6318 28.177 16.1963 28.7659 15.6749 29.2751L15.6626 29.2873V29.3057L15.6503 31.2013H15.773L15.7607 29.3241C16.2699 28.8027 16.6993 28.2077 17.0797 27.5881C17.46 26.9624 17.7974 26.306 18.0918 25.6374C18.3924 24.9687 18.6562 24.2878 18.9016 23.5946C19.1408 22.9014 19.3617 22.2021 19.5396 21.4905C19.3494 22.2143 19.1224 22.9075 18.877 23.5946Z" fill="#0F0F0F"/>
<path d="M26.4531 24.2633C26.1279 23.2266 24.306 22.3187 21.6559 21.7727L23.5576 29.2138C24.8152 28.4899 25.9623 27.5943 26.9622 26.5576C26.7966 25.6251 26.6187 24.7786 26.4531 24.2633Z" fill="#E6E7E8"/>
<path d="M5.547 24.2633C5.3875 24.7847 5.20961 25.6251 5.03784 26.5575C6.02548 27.582 7.14808 28.4653 8.38724 29.1831L9.66933 24.159L10.2766 21.7788C7.66338 22.3186 5.86599 23.2327 5.547 24.2633Z" fill="#E6E7E8"/>
<path d="M16 4.55933C13.0125 4.55933 10.5833 5.85982 10.5833 11.528C10.5833 13.4481 10.9636 14.951 11.5341 16.1105C12.7856 18.6624 14.951 19.5519 16 19.5519C17.049 19.5519 19.2145 18.6624 20.4659 16.1105C21.0364 14.951 21.4167 13.4481 21.4167 11.528C21.4167 5.85982 18.9875 4.55933 16 4.55933Z" fill="#F4B382"/>
<path d="M16 4.40601C12.442 4.40601 10.5833 5.85986 10.5833 11.5281L13.0248 9.49758C13.0248 9.49758 14.6504 9.49758 16 9.49758C17.3496 9.49758 18.8341 7.33213 18.8341 7.33213L21.4167 11.5281C21.4167 5.85986 19.558 4.40601 16 4.40601Z" fill="#141414"/>
<path d="M11.8286 9.28271L10.933 9.41767C10.6754 10.0863 10.5895 10.9145 10.5895 11.7181C10.5895 11.7181 11.1293 11.6015 11.1293 11.8776L11.3011 13.5707L11.5403 13.4541C11.5158 12.0432 11.8286 9.28271 11.8286 9.28271Z" fill="#141414"/>
<path d="M21.0732 9.4176L20.1776 9.39307C20.1776 9.39307 20.4904 12.0431 20.4781 13.4541L20.7174 13.5706L20.8891 11.8775C20.8891 11.6015 21.429 11.718 21.429 11.718C21.4228 10.9083 21.337 10.0863 21.0732 9.4176Z" fill="#141414"/>
<path d="M16.6993 16.411C16.4969 16.3803 16 16.5766 16 16.5766C16 16.5766 15.4908 16.3864 15.2884 16.411C14.9633 16.46 14.4848 16.7116 14.4848 16.8036C14.4848 16.9508 15.1596 17.3434 16 17.3434C16.8404 17.3434 17.5152 16.9447 17.5152 16.8036C17.5152 16.8036 17.0306 16.4539 16.6993 16.411Z" fill="#E5A173"/>
<path d="M16 16.8771C15.1044 16.8771 14.4848 16.8035 14.4848 16.8035C14.4848 16.9507 15.1596 17.5089 16 17.5089C16.8404 17.5089 17.5152 16.9507 17.5152 16.8035C17.5152 16.8035 16.8956 16.8771 16 16.8771Z" fill="#D89364"/>
<path d="M10.6815 11.7C10.1662 11.7858 9.76745 12.0128 10.0619 13.7182C10.3564 15.4235 10.7183 15.5033 11.2336 15.4174L10.6815 11.7Z" fill="#F4B382"/>
<path d="M21.3247 11.7L20.7726 15.4174C21.2879 15.5033 21.6499 15.4235 21.9443 13.7182C22.2326 12.0128 21.84 11.792 21.3247 11.7Z" fill="#F4B382"/>
</svg>
