<svg width="14" height="14" viewBox="0 0 14 14" fill="none" xmlns="http://www.w3.org/2000/svg">
<path d="M3.19985 2.33333H13L11.6667 7H3.91781M12.3333 9.66667H4.33333L3 1H1M5 12.3333C5 12.7015 4.70152 13 4.33333 13C3.96515 13 3.66667 12.7015 3.66667 12.3333C3.66667 11.9651 3.96515 11.6667 4.33333 11.6667C4.70152 11.6667 5 11.9651 5 12.3333ZM12.3333 12.3333C12.3333 12.7015 12.0349 13 11.6667 13C11.2985 13 11 12.7015 11 12.3333C11 11.9651 11.2985 11.6667 11.6667 11.6667C12.0349 11.6667 12.3333 11.9651 12.3333 12.3333Z" stroke="white" stroke-linecap="round"/>
</svg>
