<svg width="32" height="32" viewBox="0 0 32 32" fill="none" xmlns="http://www.w3.org/2000/svg">
<path d="M20.6957 17.8759C21.3846 18.1513 21.7307 18.9442 21.3179 19.5607C20.847 20.2639 20.2389 20.8706 19.5251 21.3417C18.4352 22.0609 17.1513 22.4295 15.8459 22.398C14.5405 22.3666 13.276 21.9366 12.2219 21.1658C11.5316 20.6609 10.9533 20.0257 10.5168 19.3006C10.1341 18.6649 10.518 17.8895 11.2194 17.6478C11.9209 17.406 12.6707 17.8038 13.1451 18.3742C13.3387 18.607 13.5609 18.8164 13.808 18.997C14.4195 19.4442 15.1533 19.6938 15.9105 19.7121C16.668 19.7303 17.4128 19.5164 18.0451 19.0991C18.3006 18.9305 18.5328 18.7321 18.7373 18.5089C19.2385 17.9618 20.0067 17.6007 20.6957 17.8759Z" fill="#5E5E5E"/>
<path d="M12.8 11.2001C12.8 10.3164 12.0837 9.6001 11.2 9.6001C10.3164 9.6001 9.60001 10.3164 9.60001 11.2001V12.8001C9.60001 13.6838 10.3164 14.4001 11.2 14.4001C12.0837 14.4001 12.8 13.6838 12.8 12.8001V11.2001Z" fill="#5E5E5E"/>
<path d="M22.4 11.2001C22.4 10.3164 21.6837 9.6001 20.8 9.6001C19.9163 9.6001 19.2 10.3164 19.2 11.2001V12.8001C19.2 13.6838 19.9163 14.4001 20.8 14.4001C21.6837 14.4001 22.4 13.6838 22.4 12.8001V11.2001Z" fill="#5E5E5E"/>
<path fill-rule="evenodd" clip-rule="evenodd" d="M0 16C0 7.16344 7.16344 0 16 0C24.8365 0 32 7.16344 32 16C32 24.8365 24.8365 32 16 32C7.16344 32 0 24.8365 0 16ZM16 3.2C8.93075 3.2 3.2 8.93075 3.2 16C3.2 23.0693 8.93075 28.8 16 28.8C23.0693 28.8 28.8 23.0693 28.8 16C28.8 8.93075 23.0693 3.2 16 3.2Z" fill="#5E5E5E"/>
</svg>
