<svg width="50" height="50" viewBox="0 0 50 50" fill="none" xmlns="http://www.w3.org/2000/svg">
<path d="M24.9999 50C38.6518 50 50 38.6764 50 25C50 11.3481 38.6274 0 24.9754 0C11.2989 0 0 11.3481 0 25C0 38.6764 11.3235 50 24.9999 50ZM24.9999 28.652C22.4754 28.652 20.7352 26.7157 20.7352 24.1177V14.0196C20.7352 11.446 22.4754 9.48537 24.9999 9.48537C27.5244 9.48537 29.2646 11.446 29.2646 14.0196V24.1177C29.2646 26.7157 27.5244 28.652 24.9999 28.652ZM18.4803 38.8725C17.8676 38.8725 17.3038 38.3333 17.3038 37.7451C17.3038 37.1078 17.8676 36.5931 18.4803 36.5931H23.8725V33.5784C18.75 33.0882 15.343 29.2647 15.343 24.0931V20.7844C15.343 20.1716 15.8577 19.6814 16.4215 19.6814C17.0342 19.6814 17.5734 20.1716 17.5734 20.7844V24.0931C17.5734 28.4068 20.5636 31.495 24.9999 31.495C29.4117 31.495 32.4263 28.4068 32.4263 24.0931V20.7844C32.4263 20.1716 32.9656 19.6814 33.5783 19.6814C34.1665 19.6814 34.6568 20.1716 34.6568 20.7844V24.0931C34.6568 29.2402 31.2253 33.0637 26.1273 33.5784V36.5931H31.544C32.1322 36.5931 32.6714 37.1078 32.6714 37.7451C32.6714 38.3333 32.1322 38.8725 31.544 38.8725H18.4803Z" fill="#41B82A"/>
</svg>
